<svg width="15" height="14" viewBox="0 0 15 14" fill="none" xmlns="http://www.w3.org/2000/svg">
<path d="M14.819 5.08074C14.7585 4.89411 14.6444 4.72941 14.4909 4.60717C14.3374 4.48492 14.1514 4.41052 13.9559 4.39324L10.244 4.07324L8.78903 0.613244C8.71328 0.431692 8.5855 0.276612 8.42179 0.16753C8.25808 0.0584492 8.06576 0.000244141 7.86903 0.000244141C7.67231 0.000244141 7.47999 0.0584492 7.31628 0.16753C7.15257 0.276612 7.02479 0.431692 6.94903 0.613244L5.49841 4.07324L1.78216 4.39449C1.58579 4.41086 1.39863 4.48489 1.24419 4.60726C1.08975 4.72964 0.974902 4.89492 0.914073 5.08234C0.853245 5.26977 0.849146 5.47099 0.90229 5.66074C0.955434 5.85049 1.06345 6.0203 1.21278 6.14887L4.03216 8.61262L3.18716 12.2714C3.14248 12.4628 3.15523 12.6632 3.22381 12.8475C3.2924 13.0317 3.41378 13.1917 3.57278 13.3073C3.73178 13.423 3.92134 13.4892 4.11777 13.4977C4.31419 13.5062 4.50877 13.4566 4.67716 13.3551L7.86466 11.4176L11.059 13.3551C11.2274 13.4566 11.422 13.5062 11.6184 13.4977C11.8149 13.4892 12.0044 13.423 12.1634 13.3073C12.3224 13.1917 12.4438 13.0317 12.5124 12.8475C12.581 12.6632 12.5937 12.4628 12.549 12.2714L11.7047 8.60887L14.5234 6.14887C14.6725 6.01981 14.7801 5.84956 14.8327 5.65951C14.8853 5.46946 14.8806 5.2681 14.819 5.08074ZM13.8678 5.39324L11.049 7.85324C10.9118 7.97258 10.8098 8.12706 10.7538 8.30006C10.6979 8.47307 10.6902 8.65806 10.7315 8.83512L11.5784 12.5001L8.38653 10.5626C8.23081 10.4678 8.05199 10.4176 7.86966 10.4176V1.00574L9.31966 4.46074C9.39008 4.62865 9.50501 4.77415 9.65205 4.88154C9.79909 4.98893 9.97266 5.05413 10.154 5.07012L13.869 5.39137C13.869 5.39137 13.869 5.39512 13.869 5.39574L13.8678 5.39324Z" fill="white"/>
</svg>
