<svg width="16" height="17" viewBox="0 0 16 17" fill="none" xmlns="http://www.w3.org/2000/svg">
<path d="M14.6565 7.16352L11.8377 9.62352L12.6821 13.286C12.7268 13.4775 12.714 13.6779 12.6454 13.8621C12.5768 14.0464 12.4555 14.2063 12.2965 14.322C12.1375 14.4376 11.9479 14.5038 11.7515 14.5123C11.555 14.5208 11.3605 14.4713 11.1921 14.3698L7.99771 12.4323L4.81021 14.3698C4.64182 14.4713 4.44724 14.5208 4.25082 14.5123C4.05439 14.5038 3.86483 14.4376 3.70583 14.322C3.54683 14.2063 3.42545 14.0464 3.35686 13.8621C3.28828 13.6779 3.27553 13.4775 3.32021 13.286L4.16333 9.62727L1.34396 7.16352C1.19484 7.03491 1.08701 6.86513 1.03399 6.67548C0.980978 6.48584 0.985134 6.28476 1.04594 6.09746C1.10675 5.91017 1.2215 5.74499 1.37581 5.62265C1.53011 5.50031 1.71711 5.42626 1.91333 5.40977L5.62958 5.08789L7.08021 1.62789C7.15596 1.44634 7.28374 1.29126 7.44745 1.18218C7.61116 1.0731 7.80349 1.01489 8.00021 1.01489C8.19693 1.01489 8.38926 1.0731 8.55297 1.18218C8.71668 1.29126 8.84446 1.44634 8.92021 1.62789L10.3752 5.08789L14.0902 5.40977C14.2864 5.42626 14.4734 5.50031 14.6277 5.62265C14.782 5.74499 14.8968 5.91017 14.9576 6.09746C15.0184 6.28476 15.0226 6.48584 14.9695 6.67548C14.9165 6.86513 14.8087 7.03491 14.6596 7.16352H14.6565Z" fill="white"/>
</svg>
